<svg width="151" height="154" viewBox="0 0 151 154" fill="none" xmlns="http://www.w3.org/2000/svg">
<g filter="url(#filter0_d_0_1134)">
<ellipse cx="75.5" cy="74" rx="72.5" ry="74" fill="#5F37A8"/>
</g>
<ellipse cx="75.5" cy="70.7192" rx="72.5" ry="70.7192" fill="#834EE3"/>
<ellipse cx="75.5" cy="70.7192" rx="72.5" ry="70.7192" fill="url(#paint0_linear_0_1134)"/>
<ellipse cx="75.5" cy="72.1774" rx="55.6566" ry="55.4089" fill="#BABFD4"/>
<ellipse cx="75.5" cy="75.0936" rx="55.6566" ry="52.4926" fill="url(#paint1_linear_0_1134)"/>
<path d="M93.4836 47.0965C96.7122 45.0968 99.8069 44.6632 102.198 45.8768C107.556 48.597 106.781 58.7218 104.588 63.1092C103.35 65.5856 101.156 67.3954 98.0598 68.4959C96.8608 72.295 95.1751 75.5594 93.0247 78.2596C94.4337 79.4389 96.2276 80.0974 98.1047 80.0975H98.1946L101.216 77.1151C101.977 76.3645 103.21 76.3642 103.97 77.1151C104.73 77.8658 104.73 79.0833 103.97 79.8338L103.702 80.0975H104.31C105.385 80.0975 106.258 80.9579 106.258 82.0193C106.258 83.0809 105.386 83.9422 104.311 83.9422H103.702L103.97 84.2059C104.73 84.9566 104.73 86.174 103.97 86.9246C103.59 87.3 103.091 87.4881 102.593 87.4881C102.095 87.4881 101.596 87.3001 101.216 86.9246L98.1946 83.9422H98.1047C95.2401 83.9421 92.5062 82.916 90.3801 81.0838C89.9643 81.4608 89.537 81.8238 89.0959 82.1688C85.3639 85.0875 80.8012 86.7843 75.468 87.2488C76.1397 89.2733 76.2726 91.4644 75.8127 93.6024L75.7932 93.6912L78.1184 97.3524C78.7037 98.2738 78.439 99.5013 77.5286 100.094C77.2006 100.307 76.8335 100.408 76.4709 100.408C75.8262 100.408 75.195 100.087 74.8206 99.4969L74.6145 99.1727L74.4846 99.7781C74.2849 100.706 73.4732 101.339 72.5715 101.34C72.4334 101.34 72.293 101.325 72.1526 101.294C71.0949 101.061 70.4245 100.005 70.6545 98.9344L70.7844 98.3289L70.4641 98.5379C69.5535 99.1296 68.3413 98.8626 67.7561 97.9412C67.1708 97.0198 67.4344 95.7923 68.345 95.2L71.9631 92.8475L71.9817 92.7586C72.3784 90.9134 72.1144 89.0102 71.2659 87.3631C69.7228 87.3196 68.1247 87.1884 66.4729 86.9647C61.7891 86.3303 59.1324 88.3958 58.429 89.0447C52.9194 94.1294 51.8457 103.111 51.8323 103.227C51.7397 104.05 51.1466 104.729 50.3459 104.928C50.189 104.966 50.0303 104.985 49.8733 104.985C49.2306 104.985 48.6158 104.668 48.2434 104.118C48.1552 103.988 46.0781 100.883 45.1672 96.5027C43.9304 90.5536 45.4055 85.0963 49.4329 80.7205C51.7686 78.1826 54.752 76.2532 58.0588 75.1424C58.102 75.1279 58.1455 75.1146 58.1887 75.1004C58.0472 75.1363 57.9057 75.1725 57.7649 75.2108C56.7227 74.7254 55.5731 74.4637 54.3899 74.4637H54.2991L51.2668 77.4471C50.8852 77.8222 50.385 78.0096 49.885 78.0096C49.385 78.0095 48.8848 77.8224 48.5032 77.4471C47.7402 76.6964 47.7403 75.479 48.5032 74.7283L48.7717 74.4637H48.1614C47.0821 74.4637 46.2073 73.6034 46.2073 72.5418C46.2073 71.4802 47.0821 70.62 48.1614 70.6199H48.7717L48.5032 70.3553C47.7403 69.6045 47.7401 68.3871 48.5032 67.6365C49.2663 66.8861 50.5038 66.8863 51.2668 67.6365L54.2991 70.619H54.3889C57.586 70.619 60.6218 71.8876 62.8362 74.1229C64.6015 73.9464 66.4022 73.9758 68.1858 74.2176C73.1318 74.8874 77.1766 74.1968 80.2991 72.1629C78.561 70.0195 77.5891 67.3049 77.5891 64.4637V64.3729L74.5999 61.2869C73.8475 60.5103 73.8474 59.2509 74.5999 58.4744C75.3523 57.6981 76.5722 57.6981 77.3245 58.4744L77.5891 58.7479V58.1268C77.5891 57.0285 78.4518 56.1375 79.5159 56.1375C80.5799 56.1375 81.4426 57.0285 81.4426 58.1268V58.7479L81.7073 58.4744C82.4597 57.6982 83.6796 57.6981 84.4319 58.4744C85.5782 59.6577 84.7514 60.9569 84.4319 61.2869C84.1124 61.6167 81.4426 64.3729 81.4426 64.3729V64.4647C81.4427 66.3422 82.0783 68.1363 83.2151 69.5613C84.6255 67.8742 85.7358 65.7541 86.5393 63.202C85.9515 61.5774 85.0374 57.7289 87.3665 53.3651C88.5861 51.0798 90.9304 48.6781 93.4836 47.0965Z" fill="#3B4262"/>
<defs>
<filter id="filter0_d_0_1134" x="0" y="0" width="151" height="154" filterUnits="userSpaceOnUse" color-interpolation-filters="sRGB">
<feFlood flood-opacity="0" result="BackgroundImageFix"/>
<feColorMatrix in="SourceAlpha" type="matrix" values="0 0 0 0 0 0 0 0 0 0 0 0 0 0 0 0 0 0 127 0" result="hardAlpha"/>
<feOffset dy="3"/>
<feGaussianBlur stdDeviation="1.5"/>
<feColorMatrix type="matrix" values="0 0 0 0 0 0 0 0 0 0 0 0 0 0 0 0 0 0 0.196706 0"/>
<feBlend mode="normal" in2="BackgroundImageFix" result="effect1_dropShadow_0_1134"/>
<feBlend mode="normal" in="SourceGraphic" in2="effect1_dropShadow_0_1134" result="shape"/>
</filter>
<linearGradient id="paint0_linear_0_1134" x1="3" y1="0" x2="3" y2="141.438" gradientUnits="userSpaceOnUse">
<stop stop-color="white" stop-opacity="0.0966455"/>
<stop offset="1" stop-color="white" stop-opacity="0.01"/>
</linearGradient>
<linearGradient id="paint1_linear_0_1134" x1="130.234" y1="127.586" x2="130.234" y2="24.3412" gradientUnits="userSpaceOnUse">
<stop stop-color="#F3F3F3"/>
<stop offset="1" stop-color="#DADADA"/>
</linearGradient>
</defs>
</svg>
