<svg width="198" height="203" viewBox="0 0 198 203" fill="none" xmlns="http://www.w3.org/2000/svg">
<ellipse cx="99" cy="101.5" rx="99" ry="101.5" fill="#C76C1B"/>
<ellipse cx="99" cy="97" rx="99" ry="97" fill="#EB9F0E"/>
<path d="M198 97C198 80.2973 193.598 63.8776 185.221 49.331C176.843 34.7844 164.774 22.6037 150.182 13.9687C135.59 5.3336 118.969 0.536692 101.929 0.0424852C84.8896 -0.451721 68.0085 3.37352 52.9206 11.1478C37.8326 18.922 25.0492 30.3818 15.8082 44.4175C6.56714 58.4531 1.1817 74.5889 0.173344 91.2624C-0.835007 107.936 2.56791 124.582 10.0525 139.589C17.5372 154.595 28.8499 167.454 42.8953 176.92L99 97H198Z" fill="url(#paint0_linear_0_1777)"/>
<circle cx="99" cy="99" r="76" fill="#BABFD4"/>
<ellipse cx="99" cy="103" rx="76" ry="72" fill="url(#paint1_linear_0_1777)"/>
<path d="M79.1599 98.3494L87.3693 86.8064C83.957 86.2376 77.691 86.1116 72.5583 91.2442C64.4676 99.335 61.1909 116.813 60.5079 121.044L81.0706 141.606C84.7722 141.289 101.162 139.101 116.954 123.309C117.121 122.968 120.968 120.126 117.823 116.98C116.322 115.479 113.837 115.507 112.303 117.041C111.522 117.822 110.308 117.833 109.543 117.069C108.779 116.304 108.79 115.09 109.571 114.309L115.151 108.728C117.987 105.893 115.314 101.108 111.356 102.258L106.788 106.169C105.953 106.896 104.713 106.77 104.027 105.977C103.319 105.157 103.47 103.915 104.277 103.215C120.235 89.2135 117.906 90.8998 128.173 81.2763C132.009 78.0824 127.183 72.4328 123.403 75.6675L98.5656 98.0027C97.8432 98.6181 96.7357 98.6297 96.0246 97.9746C95.2041 97.266 95.1852 96.245 95.7216 95.4385L113.046 68.5052C115.579 65.0757 110.595 61.2668 107.927 64.7242L82.3117 100.55C81.6939 101.443 80.4491 101.648 79.6006 101.023C78.7496 100.452 78.5166 99.2119 79.1599 98.3494Z" fill="#3B4262"/>
<defs>
<linearGradient id="paint0_linear_0_1777" x1="0" y1="1.52588e-05" x2="0" y2="194" gradientUnits="userSpaceOnUse">
<stop stop-color="white" stop-opacity="0.0966455"/>
<stop offset="1" stop-color="white" stop-opacity="0.01"/>
</linearGradient>
<linearGradient id="paint1_linear_0_1777" x1="173.74" y1="175" x2="173.74" y2="33.3868" gradientUnits="userSpaceOnUse">
<stop stop-color="#F3F3F3"/>
<stop offset="1" stop-color="#DADADA"/>
</linearGradient>
</defs>
</svg>
