<svg width="153" height="156" viewBox="0 0 153 156" fill="none" xmlns="http://www.w3.org/2000/svg">
<g filter="url(#filter0_d_0_1103)">
<ellipse cx="76.5" cy="74" rx="72.5" ry="74" fill="#2D8DAB"/>
<ellipse cx="76.5" cy="70.7192" rx="72.5" ry="70.7192" fill="#3FB7CD"/>
<ellipse cx="76.5" cy="70.7192" rx="72.5" ry="70.7192" fill="url(#paint0_linear_0_1103)"/>
<ellipse cx="76.5" cy="72.1773" rx="55.6566" ry="55.4089" fill="#BABFD4"/>
<ellipse cx="76.5" cy="75.0936" rx="55.6566" ry="52.4926" fill="url(#paint1_linear_0_1103)"/>
<path d="M101.041 76.4216L100.178 75.5624C98.1164 73.5084 94.7455 73.061 92.228 74.5015L86.8522 77.5606L87.9726 53.0592C87.9726 51.0052 86.2944 49.3332 84.2298 49.3332C83.784 49.3332 83.3549 49.4116 82.9568 49.5552L83.0903 48.2403C83.0905 46.1626 81.3859 44.4729 79.2928 44.4729C77.3571 44.4729 75.7336 45.9183 75.5285 47.7717L72.079 68.521C72.0337 68.8034 71.5425 68.775 71.4901 68.597L67.4159 51.9617C66.9701 50.4144 65.5302 49.3334 63.9139 49.3334C62.7959 49.3334 61.7564 49.8341 61.0604 50.7075C60.3666 51.5809 60.114 52.7046 60.3714 53.788L61.1629 57.1379C60.7123 57.1011 60.2594 57.1616 59.8279 57.3063C58.2211 57.8391 57.2413 59.4363 57.5012 61.1237L59.8994 74.8505C59.8994 80.2663 60.853 84.2736 61.654 86.68C62.1093 88.053 62.3406 89.4971 62.3406 90.9721C62.3406 92.256 62.1617 93.534 61.8065 94.7681L59.947 101.249C59.8421 101.616 59.916 102.01 60.1449 102.315C60.3761 102.619 60.7361 102.798 61.1199 102.798H83.0903C83.4837 102.798 83.8508 102.611 84.0797 102.294C84.3109 101.977 84.3729 101.569 84.2489 101.198C84.237 101.166 83.2167 98.0289 84.1822 93.7606C85.4076 92.7709 89.6962 89.2989 91.2363 87.8987C93.7824 85.5836 100.758 78.4306 101.053 78.1269C101.518 77.6509 101.513 76.8915 101.041 76.4216Z" fill="#3B4262"/>
</g>
<defs>
<filter id="filter0_d_0_1103" x="0" y="0" width="153" height="156" filterUnits="userSpaceOnUse" color-interpolation-filters="sRGB">
<feFlood flood-opacity="0" result="BackgroundImageFix"/>
<feColorMatrix in="SourceAlpha" type="matrix" values="0 0 0 0 0 0 0 0 0 0 0 0 0 0 0 0 0 0 127 0" result="hardAlpha"/>
<feOffset dy="4"/>
<feGaussianBlur stdDeviation="2"/>
<feComposite in2="hardAlpha" operator="out"/>
<feColorMatrix type="matrix" values="0 0 0 0 0 0 0 0 0 0 0 0 0 0 0 0 0 0 0.25 0"/>
<feBlend mode="normal" in2="BackgroundImageFix" result="effect1_dropShadow_0_1103"/>
<feBlend mode="normal" in="SourceGraphic" in2="effect1_dropShadow_0_1103" result="shape"/>
</filter>
<linearGradient id="paint0_linear_0_1103" x1="4" y1="0" x2="4" y2="141.438" gradientUnits="userSpaceOnUse">
<stop stop-color="white" stop-opacity="0.0966455"/>
<stop offset="1" stop-color="white" stop-opacity="0.01"/>
</linearGradient>
<linearGradient id="paint1_linear_0_1103" x1="131.234" y1="127.586" x2="131.234" y2="24.3411" gradientUnits="userSpaceOnUse">
<stop stop-color="#F3F3F3"/>
<stop offset="1" stop-color="#DADADA"/>
</linearGradient>
</defs>
</svg>
